<svg id="Capa_1" enable-background="new 0 0 512 512" height="512" viewBox="0 0 512 512" width="512" xmlns="http://www.w3.org/2000/svg"><path d="m127.465 32.955h257.07v479.045h-257.07z" fill="#eb966d"/><path d="m365.954 32.955h18.581v479.045h-18.581z" fill="#e8834d"/><path d="m99.662 0c-2.845 0-5.151 2.306-5.151 5.151v501.698c0 2.845 2.306 5.151 5.151 5.151h27.803v-479.045h257.07v479.045h27.803c2.845 0 5.151-2.306 5.151-5.151v-501.698c0-2.845-2.306-5.151-5.151-5.151z" fill="#a95118"/><path d="m108.884 512h18.581v-479.045h-13.419c-2.85 0-5.161 2.311-5.161 5.161v473.884z" fill="#994916"/><path d="m398.909 0v32.955 479.045h13.429c2.845 0 5.151-2.306 5.151-5.151v-501.698c0-2.845-2.306-5.151-5.151-5.151z" fill="#994916"/><path d="m336.365 246.735h-165.88v-166.633c0-2.845 2.306-5.151 5.151-5.151h160.729c2.845 0 5.151 2.306 5.151 5.151v161.482c0 2.845-2.306 5.151-5.151 5.151z" fill="#d56723"/><path d="m322.935 74.951v171.784h13.429c2.845 0 5.151-2.306 5.151-5.151v-161.482c0-2.845-2.306-5.151-5.151-5.151z" fill="#b6591e"/><path d="m336.365 470.004h-160.73c-2.845 0-5.151-2.306-5.151-5.151v-161.482c0-2.845 2.306-5.151 5.151-5.151h160.729c2.845 0 5.151 2.306 5.151 5.151v161.482c.001 2.845-2.305 5.151-5.15 5.151z" fill="#d56723"/><path d="m322.935 298.219v171.785h13.429c2.845 0 5.151-2.306 5.151-5.151v-161.482c0-2.845-2.306-5.151-5.151-5.151h-13.429z" fill="#b6591e"/><path d="m366.318 271.994c0-7.822-6.364-14.186-14.186-14.186-5.06 0-9.498 2.672-12.01 6.671h-17.932c-4.15 0-7.515 3.364-7.515 7.515 0 4.15 3.365 7.515 7.515 7.515h17.932c2.512 3.999 6.949 6.671 12.01 6.671 7.822 0 14.186-6.364 14.186-14.186z" fill="#994916"/></svg>