<svg height="512pt" viewBox="-12 0 512 512" width="512pt" xmlns="http://www.w3.org/2000/svg"><path d="m33.074219 290.160156c0 24.980469 20.25 45.226563 45.226562 45.226563h65.804688c24.980469 0 45.226562-20.246094 45.226562-45.226563v-71.777344h-156.257812zm0 0" fill="#59dbff"/><path d="m194.632812 180.769531h-166.855468c-9.816406 0-17.777344 7.957031-17.777344 17.777344v18.996094c0 .464843.378906.839843.839844.839843h200.726562c.464844 0 .839844-.375.839844-.839843v-18.996094c0-9.820313-7.957031-17.777344-17.773438-17.777344zm0 0" fill="#dbf6ff"/><path d="m88.785156 356.011719c0 7.488281 6.070313 13.558593 13.5625 13.558593h17.714844c7.492188 0 13.5625-6.070312 13.5625-13.558593v-20.625h-44.839844zm0 0" fill="#57f7ac"/><path d="m88.785156 96.933594c0-8.8125-7.144531-15.957032-15.960937-15.957032-8.8125 0-15.957031 7.144532-15.957031 15.957032v83.835937h31.917968zm0 0" fill="#59dbff"/><path d="m165.542969 96.933594c0-8.8125-7.144531-15.957032-15.960938-15.957032-8.8125 0-15.957031 7.144532-15.957031 15.957032v83.835937h31.917969zm0 0" fill="#59dbff"/><path d="m448.496094 10h-155.128906c-16.628907 0-30.105469 13.476562-30.105469 30.105469v144.082031c0 16.628906 13.480469 30.105469 30.105469 30.105469h155.128906c16.625 0 30.105468-13.476563 30.105468-30.105469v-144.082031c0-16.628907-13.480468-30.105469-30.105468-30.105469zm-77.566406 162.875c-33.539063 0-60.726563-27.1875-60.726563-60.730469 0-33.539062 27.1875-60.726562 60.726563-60.726562 33.539062 0 60.730468 27.1875 60.730468 60.726562 0 33.542969-27.1875 60.730469-60.730468 60.730469zm0 0" fill="#ff55a3"/><path d="m431.660156 112.144531c0 33.542969-27.191406 60.730469-60.730468 60.730469-33.539063 0-60.726563-27.1875-60.726563-60.730469 0-33.539062 27.1875-60.726562 60.726563-60.726562 33.539062 0 60.730468 27.1875 60.730468 60.726562zm0 0" fill="#fae0eb"/><path d="m448.496094 0h-155.128906c-22.113282 0-40.105469 17.988281-40.105469 40.105469v144.085937c0 22.113282 17.992187 40.101563 40.105469 40.101563h155.128906c22.113281 0 40.105468-17.988281 40.105468-40.101563v-144.085937c0-22.117188-17.992187-40.105469-40.105468-40.105469zm20.105468 184.1875c0 11.085938-9.019531 20.105469-20.105468 20.105469h-155.128906c-11.085938 0-20.105469-9.019531-20.105469-20.105469v-144.082031c0-11.085938 9.019531-20.105469 20.105469-20.105469h155.128906c11.085937 0 20.105468 9.019531 20.105468 20.105469zm0 0"/><path d="m370.929688 41.417969c-39 0-70.726563 31.730469-70.726563 70.730469s31.726563 70.726562 70.726563 70.726562 70.730468-31.726562 70.730468-70.726562-31.730468-70.730469-70.730468-70.730469zm0 121.457031c-27.96875 0-50.726563-22.757812-50.726563-50.730469 0-27.96875 22.757813-50.726562 50.726563-50.726562 27.972656 0 50.730468 22.757812 50.730468 50.726562 0 27.972657-22.757812 50.730469-50.730468 50.730469zm0 0"/><path d="m347.675781 91.871094c-5.523437 0-10 4.476562-10 10v20.550781c0 5.523437 4.476563 10 10 10 5.523438 0 10-4.476563 10-10v-20.550781c0-5.523438-4.476562-10-10-10zm0 0"/><path d="m394.1875 91.871094c-5.523438 0-10 4.476562-10 10v20.550781c0 5.523437 4.476562 10 10 10s10-4.476563 10-10v-20.550781c0-5.523438-4.476562-10-10-10zm0 0"/><path d="m415.320312 492h-121.550781c-15.882812 0-28.804687-12.921875-28.804687-28.804688v-81.023437c0-23.609375-19.207032-42.816406-42.816406-42.816406-23.609376 0-42.816407 19.207031-42.816407 42.816406v80.765625c0 16.023438-13.039062 29.0625-29.0625 29.0625-16.027343 0-29.066406-13.039062-29.066406-29.0625v-83.390625c12.464844-.597656 22.417969-10.925781 22.417969-23.535156v-10.625h.484375c30.453125 0 55.226562-24.773438 55.226562-55.226563v-61.773437h12.234375c5.976563 0 10.839844-4.863281 10.839844-10.84375v-18.996094c0-15.316406-12.460938-27.777344-27.777344-27.777344h-19.089844v-73.835937c0-14.3125-11.644531-25.957032-25.957031-25.957032s-25.960937 11.644532-25.960937 25.957032v73.835937h-24.835938v-73.835937c0-14.3125-11.644531-25.957032-25.960937-25.957032-14.3125 0-25.957031 11.644532-25.957031 25.957032v73.835937h-19.089844c-15.316406 0-27.777344 12.460938-27.777344 27.777344v18.996094c0 5.980469 4.863281 10.84375 10.84375 10.84375h12.230469v61.773437c0 30.453125 24.777343 55.226563 55.226562 55.226563h.484375v10.625c0 12.609375 9.957032 22.9375 22.417969 23.535156v83.390625c0 27.054688 22.011719 49.0625 49.066406 49.0625 27.050781 0 49.0625-22.011719 49.0625-49.0625v-80.765625c0-12.582031 10.234375-22.816406 22.816407-22.816406 12.582031 0 22.816406 10.234375 22.816406 22.816406v81.023437c0 26.910157 21.894531 48.804688 48.804687 48.804688h121.550781c5.523438 0 10-4.476562 10-10s-4.476562-10-10-10zm-271.699218-395.066406c0-3.285156 2.675781-5.957032 5.960937-5.957032 3.285157 0 5.957031 2.671876 5.957031 5.957032v73.835937h-11.917968zm-76.753906 0c0-3.285156 2.671874-5.957032 5.957031-5.957032 3.285156 0 5.960937 2.671876 5.960937 5.957032v73.835937h-11.917968zm-23.792969 193.226562v-61.773437h53.558593c5.523438 0 10-4.480469 10-10 0-5.523438-4.476562-10-10-10h-76.632812v-9.839844c0-4.289063 3.488281-7.777344 7.777344-7.777344h166.855468c4.285157 0 7.773438 3.488281 7.773438 7.777344v9.839844h-25.773438c-5.523437 0-10 4.476562-10 10 0 5.519531 4.476563 10 10 10h2.699219v61.773437c0 19.425782-15.800781 35.226563-35.226562 35.226563h-65.804688c-19.421875 0-35.226562-15.800781-35.226562-35.226563zm55.710937 65.851563v-10.625h24.835938v10.625c0 1.964843-1.597656 3.5625-3.558594 3.5625h-17.71875c-1.960938-.003907-3.558594-1.597657-3.558594-3.5625zm0 0"/><path d="m136.632812 228.386719h.023438c5.523438 0 9.988281-4.480469 9.988281-10 0-5.523438-4.488281-10-10.011719-10-5.523437 0-10 4.476562-10 10 0 5.519531 4.476563 10 10 10zm0 0"/></svg>